<?xml version="1.0" encoding="utf-8"?>
<!-- Generator: Adobe Illustrator 19.1.0, SVG Export Plug-In . SVG Version: 6.00 Build 0)  -->
<svg version="1.1" id="Layer_1" xmlns="http://www.w3.org/2000/svg" xmlns:xlink="http://www.w3.org/1999/xlink" x="0px" y="0px"
	 viewBox="0 0 1757.2 749.8" enable-background="new 0 0 1757.2 749.8" xml:space="preserve">
<path fill="none" stroke="#000000" stroke-width="5" stroke-miterlimit="10" d="M821.7,515.2c86.6-20.1,228-43.6,417.9-123.8
	c221.8-93.6,354.7-190.8,394.8-254"/>
<line fill="none" stroke="#000000" stroke-width="4" stroke-miterlimit="10" x1="0" y1="654.8" x2="1283.1" y2="654.8"/>
<line fill="none" stroke="#000000" stroke-width="4" stroke-miterlimit="10" x1="707.2" y1="396.3" x2="707.2" y2="738.4"/>
<line fill="none" stroke="#000000" stroke-width="4" stroke-miterlimit="10" x1="707.2" y1="89.4" x2="707.2" y2="356.2"/>
<line fill="none" stroke="#000000" stroke-width="4" stroke-miterlimit="10" x1="1279.5" y1="654.8" x2="1701.2" y2="654.8"/>
<text transform="matrix(1 0 0 1 1330.1436 408.7673)" fill="#0000FF" font-family="'cmr10'" font-size="74.7195px">∆</text>
<text transform="matrix(1 0 0 1 1392.4111 408.7673)" fill="#0000FF" font-family="'cmmi10'" font-size="74.7195px">s</text>
<text transform="matrix(1 0 0 1 1714.4573 671.7901)" font-family="'cmmi10'" font-size="74.7195px">x</text>
<text transform="matrix(1 0 0 1 685.6974 63.5108)" font-family="'cmmi10'" font-size="74.7195px">y</text>
<text transform="matrix(1 0 0 1 786.6243 475.0079)" font-family="'cmmi10'" font-size="74.7195px">s</text>
<text transform="matrix(1 0 0 1 821.6517 486.2111)" font-family="'cmr7'" font-size="52.3035px">0</text>
<text transform="matrix(1 0 0 1 1595.4851 116.3028)" font-family="'cmmi10'" font-size="74.7195px">s</text>
<text transform="matrix(1 0 0 1 1630.5066 127.5118)" font-family="'cmmi7'" font-size="52.3035px">n</text>
<text transform="matrix(1 0 0 1 800.3 721.6036)" font-family="'cmmi10'" font-size="74.7195px">x</text>
<text transform="matrix(1 0 0 1 843.0031 732.8126)" font-family="'cmr7'" font-size="52.3035px">0</text>
<text transform="matrix(1 0 0 1 1612.9955 727.2081)" font-family="'cmmi10'" font-size="74.7195px">x</text>
<text transform="matrix(1 0 0 1 1655.7045 738.4171)" font-family="'cmmi7'" font-size="52.3035px">n</text>
<g>
	<g>
		<line fill="none" stroke="#000000" stroke-width="4" stroke-miterlimit="10" x1="821.7" y1="522.7" x2="821.7" y2="528.7"/>
		
			<line fill="none" stroke="#000000" stroke-width="4" stroke-miterlimit="10" stroke-dasharray="12.4589,12.4589" x1="821.7" y1="541.2" x2="821.7" y2="659.6"/>
		<line fill="none" stroke="#000000" stroke-width="4" stroke-miterlimit="10" x1="821.7" y1="665.8" x2="821.7" y2="671.8"/>
	</g>
</g>
<line fill="none" stroke="#000000" stroke-width="4" stroke-miterlimit="10" stroke-dasharray="12" x1="1634.3" y1="145.7" x2="1634.3" y2="671.8"/>
<text transform="matrix(1 0 0 1 612.1624 522.7422)" font-family="'cmmi10'" font-size="74.7195px">y</text>
<text transform="matrix(1 0 0 1 648.7952 533.957)" font-family="'cmr7'" font-size="52.3035px">0</text>
<text transform="matrix(1 0 0 1 607.4788 146.1427)" font-family="'cmmi10'" font-size="74.7195px">y</text>
<text transform="matrix(1 0 0 1 644.1116 157.3458)" font-family="'cmmi7'" font-size="52.3035px">n</text>
<line fill="none" stroke="#000000" stroke-width="4" stroke-miterlimit="10" stroke-dasharray="12" x1="685.7" y1="137.4" x2="1634.3" y2="137.4"/>
<line fill="none" stroke="#000000" stroke-width="4" stroke-miterlimit="10" stroke-dasharray="12" x1="821.7" y1="515.2" x2="685.7" y2="515.2"/>
<path fill="none" stroke="#000000" stroke-width="4" stroke-miterlimit="10" d="M1323.6,352.6"/>
<path fill="none" stroke="#000000" stroke-width="4" stroke-miterlimit="10" d="M131.6,336.1"/>
<linearGradient id="SVGID_1_" gradientUnits="userSpaceOnUse" x1="21.5342" y1="353.7867" x2="1396.9827" y2="353.7867">
	<stop  offset="0" style="stop-color:#231F20"/>
	<stop  offset="8.962709e-02" style="stop-color:#231F20;stop-opacity:0.9104"/>
	<stop  offset="1" style="stop-color:#231F20;stop-opacity:0"/>
</linearGradient>
<path fill="url(#SVGID_1_)" stroke="#000000" stroke-width="4" stroke-miterlimit="10" d="M1397,310.7c0,9.2-43.3,17.7-117.5,24.8
	C1155.9,347.2,946.6,355,709.3,355c-237.4,0-446.7-7.7-570.3-19.5c-74.2-7.1-117.5-15.6-117.5-24.8l65.6,41.9
	c0,24.4,276.8,44.3,618.2,44.3s618.2-19.8,618.2-44.3l1-0.1c3-3,6.2-4.5,9.3-4.5l62.1-33.2"/>
<linearGradient id="SVGID_2_" gradientUnits="userSpaceOnUse" x1="1396.9827" y1="301.2613" x2="21.5342" y2="301.2613">
	<stop  offset="0" style="stop-color:#231F20"/>
	<stop  offset="8.962709e-02" style="stop-color:#231F20;stop-opacity:0.9104"/>
	<stop  offset="1" style="stop-color:#231F20;stop-opacity:0"/>
</linearGradient>
<path fill="url(#SVGID_2_)" stroke="#000000" stroke-width="4" stroke-miterlimit="10" d="M139,334.6
	C64.8,327.5,21.5,319,21.5,309.8v0.9c0-24.4,307.9-44.3,687.7-44.3s687.7,19.8,687.7,44.3v-0.9c0,9.2-43.3,17.7-117.5,24.8l-6.9,0.4
	c-95.1-15.7-313.3-26.6-567.3-26.6c-259.9,0-482.3,11.5-573.7,27.8"/>
<polyline fill="none" stroke="#0000FF" stroke-width="5" stroke-miterlimit="10" points="1394.6,317.7 1323.1,355.4 1323.1,350.4 
	1394.6,312.7 "/>
</svg>
