<?xml version="1.0" encoding="utf-8"?>
<!-- Generator: Adobe Illustrator 22.1.0, SVG Export Plug-In . SVG Version: 6.00 Build 0)  -->
<svg version="1.1" id="Layer_1" xmlns="http://www.w3.org/2000/svg" xmlns:xlink="http://www.w3.org/1999/xlink" x="0px" y="0px"
	 viewBox="0 0 197.5 85.2" enable-background="new 0 0 197.5 85.2" xml:space="preserve">
<g>
	<defs>
		<polyline id="SVGID_1_" points="0.4,290.9 194.7,290.9 194.7,-154 0.4,-154 		"/>
	</defs>
	<clipPath id="SVGID_2_">
		<use xlink:href="#SVGID_1_"  overflow="visible"/>
	</clipPath>
	<path clip-path="url(#SVGID_2_)" fill="none" stroke="#BFBFBF" stroke-width="0.3985" stroke-miterlimit="10" d="M194.7,149.2
		V-12.2 M162.3,149.2V-12.2 M129.9,149.2V-12.2 M97.5,149.2V-12.2 M32.8,149.2V-12.2 M0.4,149.2V-12.2"/>
</g>
<g>
	<defs>
		<polyline id="SVGID_3_" points="-141.3,149.2 -141.3,-12.2 336.4,-12.2 336.4,149.2 		"/>
	</defs>
	<clipPath id="SVGID_4_">
		<use xlink:href="#SVGID_3_"  overflow="visible"/>
	</clipPath>
	<path clip-path="url(#SVGID_4_)" fill="none" stroke="#BFBFBF" stroke-width="0.3985" stroke-miterlimit="10" d="M31.2,14.7h163.4
		 M0.4,14.7h30.8 M0.4,122.3h194.3"/>
</g>
<g>
	<defs>
		<polyline id="SVGID_5_" points="0.4,290.9 194.7,290.9 194.7,-154 0.4,-154 		"/>
	</defs>
	<clipPath id="SVGID_6_">
		<use xlink:href="#SVGID_5_"  overflow="visible"/>
	</clipPath>
</g>
<g>
	<defs>
		<polyline id="SVGID_7_" points="-141.3,149.2 -141.3,-12.2 336.4,-12.2 336.4,149.2 		"/>
	</defs>
	<clipPath id="SVGID_8_">
		<use xlink:href="#SVGID_7_"  overflow="visible"/>
	</clipPath>
</g>
<line fill="none" stroke="#000000" stroke-miterlimit="10" x1="71.3" y1="68.5" x2="125.6" y2="68.5"/>
<line fill="none" stroke="#000000" stroke-miterlimit="10" x1="0.4" y1="68.5" x2="71.3" y2="68.5"/>
<g>
	<defs>
		<rect id="SVGID_9_" x="0.4" y="-12.2" width="194.3" height="161.4"/>
	</defs>
	<clipPath id="SVGID_10_">
		<use xlink:href="#SVGID_9_"  overflow="visible"/>
	</clipPath>
</g>
<text transform="matrix(1 0 0 1 186.7574 76.307)" font-family="'TimesNewRomanPS-ItalicMT'" font-size="9.9626px">x</text>
<text transform="matrix(1 0 0 1 90.4769 8.5906)" font-family="'TimesNewRomanPS-ItalicMT'" font-size="9.9626px">y</text>
<path fill="none" stroke="#0000FF" stroke-width="1.5" stroke-miterlimit="10" d="M129.8,68.3"/>
<path fill="none" stroke="#0000FF" stroke-width="1.5" stroke-miterlimit="10" d="M65.6,67.3"/>
<polyline fill="none" stroke="#0000FF" stroke-width="0.797" stroke-miterlimit="10" points="107.7,71.9 107.7,71.8 107.8,71.8 "/>
<polyline fill="none" stroke="#0000FF" stroke-width="0.797" stroke-miterlimit="10" points="107.7,71.9 107.7,71.8 107.8,71.8 "/>
<g>
	<path fill="none" d="M130,121.8"/>
</g>
<g>
	<path fill="none" d="M130,69.1"/>
</g>
<g>
	<path fill="none" d="M129.8,121.4"/>
</g>
<g>
	<path fill="none" d="M65.4,67.7"/>
</g>
<path fill="none" stroke="#00FF00" stroke-width="1.5" stroke-miterlimit="10" d="M44.5,85.3"/>
<path fill="none" stroke="#00FF00" stroke-width="1.5" stroke-miterlimit="10" d="M75,90.5"/>
<polyline fill="none" stroke="#000000" stroke-miterlimit="10" points="97.7,41 97.7,46.3 97.7,43.3 97.7,147.9 "/>
<line fill="none" stroke="#BFBFBF" stroke-width="0.3985" stroke-miterlimit="10" x1="64.9" y1="149.3" x2="64.9" y2="-12.1"/>
<path fill="none" stroke="#00FF00" stroke-miterlimit="10" d="M97.3,13.9"/>
<path fill="none" stroke="#00FF00" stroke-miterlimit="10" d="M144.1,67"/>
<path fill="none" stroke="#00FF00" stroke-miterlimit="10" d="M92.7,68"/>
<path fill="none" stroke="#00FF00" stroke-miterlimit="10" d="M85.2,68"/>
<path fill="none" stroke="#00FF00" stroke-miterlimit="10" d="M78.1,68"/>
<path fill="none" stroke="#00FF00" stroke-miterlimit="10" d="M69.6,68"/>
<path fill="none" stroke="#00FF00" stroke-miterlimit="10" d="M64.1,67"/>
<line fill="none" stroke="#00FF00" stroke-miterlimit="10" x1="52.1" y1="67" x2="53" y2="67"/>
<linearGradient id="SVGID_11_" gradientUnits="userSpaceOnUse" x1="64.8427" y1="52.1488" x2="128.9647" y2="52.1488" gradientTransform="matrix(1 0 0 1 0.3583 -1.483826e-02)">
	<stop  offset="0.1103" style="stop-color:#FFFFFF"/>
	<stop  offset="0.9609" style="stop-color:#000000"/>
</linearGradient>
<path fill="url(#SVGID_11_)" stroke="#000000" stroke-miterlimit="10" d="M65.3,35.5c0-1.5,14.3-2.8,31.9-2.8s31.9,1.2,31.9,2.8
	l-0.1-0.3v33.5l0.3,0.1c0,1.5-14.3,2.8-31.9,2.8s-31.9-1.2-31.9-2.8L65.2,69V35"/>
<ellipse fill="#FFFFFF" stroke="#000000" stroke-miterlimit="10" cx="96.7" cy="35.3" rx="31.9" ry="2.8"/>
<line fill="none" stroke="#000000" stroke-miterlimit="10" x1="129.8" y1="68.6" x2="194.7" y2="68.5"/>
<line fill="none" stroke="#000000" stroke-miterlimit="10" x1="97.9" y1="-13.8" x2="97.9" y2="37.7"/>
<path fill="none" stroke="#00FF00" stroke-miterlimit="10" d="M97.3,14.9c0.2,0,0.4,0,0.7,0c22.5,0,36.1,32.6,48.5,31.2
	c8.2-0.9,14.4-14.4,24.4-16.6c7.8-1.7,9,22.6,18.2,38.4"/>
</svg>
