<?xml version="1.0" encoding="utf-8"?>
<!-- Generator: Adobe Illustrator 19.1.0, SVG Export Plug-In . SVG Version: 6.00 Build 0)  -->
<svg version="1.1" id="Layer_1" xmlns="http://www.w3.org/2000/svg" xmlns:xlink="http://www.w3.org/1999/xlink" x="0px" y="0px"
	 viewBox="0 0 896.1 443.3" enable-background="new 0 0 896.1 443.3" xml:space="preserve">
<path fill="none" stroke="#0000FF" stroke-width="5" stroke-miterlimit="10" d="M0.8,379.6c86.6-20.1,228-43.6,417.9-123.8
	C640.6,162.2,773.4,65,813.5,1.8"/>
<line fill="none" stroke="#000000" stroke-width="4" stroke-miterlimit="10" x1="813.5" y1="1.8" x2="0.8" y2="379.6"/>
<line fill="none" stroke="#000000" stroke-width="4" stroke-miterlimit="10" x1="0.8" y1="379.6" x2="813.5" y2="379.6"/>
<line fill="none" stroke="#000000" stroke-width="4" stroke-miterlimit="10" x1="813.5" y1="1.8" x2="813.5" y2="379.6"/>
<text transform="matrix(1 0 0 1 420.8229 430.8902)" font-family="'cmr10'" font-size="49.813px">∆</text>
<text transform="matrix(1 0 0 1 462.3346 430.8902)" font-family="'cmmi10'" font-size="49.813px">x</text>
<text transform="matrix(1 0 0 1 830.0397 208.9746)" font-family="'cmr10'" font-size="49.813px">∆</text>
<text transform="matrix(1 0 0 1 871.5514 208.9746)" font-family="'cmmi10'" font-size="49.813px">y</text>
<text transform="matrix(1 0 0 1 643.0515 190.7025)" fill="#0000FF" font-family="'cmr10'" font-size="49.813px">∆</text>
<text transform="matrix(1 0 0 1 684.5632 190.7025)" fill="#0000FF" font-family="'cmmi10'" font-size="49.813px">s</text>
<line fill="none" stroke="#000000" stroke-width="0.398" stroke-miterlimit="10" x1="188.7" y1="88.6" x2="509.5" y2="88.6"/>
<text transform="matrix(1 0 0 1 188.7467 134.6031)" font-family="'cmr10'" font-size="49.813px">(∆</text>
<text transform="matrix(1 0 0 1 249.6256 134.6031)" font-family="'cmmi10'" font-size="49.813px">x</text>
<text transform="matrix(1 0 0 1 278.0983 134.6031)" font-family="'cmr10'" font-size="49.813px">)</text>
<text transform="matrix(1 0 0 1 297.4733 120.2125)" font-family="'cmr7'" font-size="34.869px">2</text>
<text transform="matrix(1 0 0 1 330.8873 134.6031)"><tspan x="0" y="0" font-family="'cmr10'" font-size="49.813px" letter-spacing="11">+</tspan><tspan x="49.8" y="0" font-family="'cmr10'" font-size="49.813px">(∆</tspan></text>
<text transform="matrix(1 0 0 1 441.5787 134.6031)" font-family="'cmmi10'" font-size="49.813px">y</text>
<text transform="matrix(1 0 0 1 467.7897 134.6031)" font-family="'cmr10'" font-size="49.813px">)</text>
<text transform="matrix(1 0 0 1 487.1608 120.2125)" font-family="'cmr7'" font-size="34.869px">2</text>
<text transform="matrix(1 0 0 1 145.0465 142.7467)" font-family="'MyriadPro-Regular'" font-size="72px">√</text>
<line fill="none" stroke="#000000" stroke-width="4" stroke-miterlimit="10" x1="185.3" y1="85.6" x2="516.3" y2="85.6"/>
</svg>
