<?xml version="1.0" encoding="utf-8"?>
<!-- Generator: Adobe Illustrator 18.1.1, SVG Export Plug-In . SVG Version: 6.00 Build 0)  -->
<!DOCTYPE svg PUBLIC "-//W3C//DTD SVG 1.1//EN" "http://www.w3.org/Graphics/SVG/1.1/DTD/svg11.dtd">
<svg version="1.1" id="Layer_1" xmlns="http://www.w3.org/2000/svg" xmlns:xlink="http://www.w3.org/1999/xlink" x="0px" y="0px"
	 viewBox="0 0 152.1 156.6" enable-background="new 0 0 152.1 156.6" xml:space="preserve">
<g>
	<defs>
		<polyline id="SVGID_1_" points="-22.1,301.6 172.2,301.6 172.2,-143.2 -22.1,-143.2 		"/>
	</defs>
	<clipPath id="SVGID_2_">
		<use xlink:href="#SVGID_1_"  overflow="visible"/>
	</clipPath>
</g>
<g>
	<defs>
		<polyline id="SVGID_3_" points="-163.8,159.9 -163.8,-1.5 313.9,-1.5 313.9,159.9 		"/>
	</defs>
	<clipPath id="SVGID_4_">
		<use xlink:href="#SVGID_3_"  overflow="visible"/>
	</clipPath>
</g>
<line fill="none" stroke="#000000" stroke-width="0.3985" stroke-miterlimit="10" x1="-22.1" y1="79.2" x2="172.2" y2="79.2"/>
<line fill="none" stroke="#000000" stroke-width="0.3985" stroke-miterlimit="10" x1="75.1" y1="159.9" x2="75.1" y2="-1.5"/>
<g>
	<defs>
		<rect id="SVGID_5_" x="-22.1" y="-1.5" width="194.3" height="161.4"/>
	</defs>
	<clipPath id="SVGID_6_">
		<use xlink:href="#SVGID_5_"  overflow="visible"/>
	</clipPath>
</g>
<text transform="matrix(1 0 0 1 144.7771 76.9318)" font-family="'cmmi10'" font-size="9.9626">x</text>
<text transform="matrix(1 0 0 1 78.5829 6.3157)" font-family="'cmmi10'" font-size="9.9626">y</text>
<path fill="none" stroke="#0000FF" stroke-width="0.797" stroke-miterlimit="10" d="M131,113.3c-11.4,18.8-32,31.3-55.6,31.3
	c-35.9,0-65-29.1-65-65s29.1-65,65-65c23.2,0,43.6,12.2,55.1,30.5"/>
<path fill="none" stroke="#0000FF" stroke-width="0.797" stroke-miterlimit="10" d="M131.7,112.2"/>
<path fill="none" stroke="#0000FF" stroke-width="0.797" stroke-miterlimit="10" d="M74.8,79.6"/>
<path fill="none" stroke="#0000FF" stroke-width="0.797" stroke-miterlimit="10" d="M130.7,113.2"/>
<path fill="none" stroke="#0000FF" stroke-width="0.797" stroke-miterlimit="10" d="M130.7,46.1"/>
<path opacity="0.5" fill="#0000FF" stroke="#0000FF" stroke-width="0.797" stroke-miterlimit="10" d="M131.2,45.9L75.3,79.1
	l-0.2,0.2l55.9,33.9l0.1,0.1c5.9-9.8,9.4-21.3,9.4-33.6c0-12.7-3.6-24.5-9.9-34.5"/>
<circle stroke="#000000" stroke-width="0.3985" stroke-miterlimit="10" cx="130.5" cy="46.3" r="2.2"/>
</svg>
