<?xml version="1.0" encoding="utf-8"?>
<!-- Generator: Adobe Illustrator 18.1.1, SVG Export Plug-In . SVG Version: 6.00 Build 0)  -->
<!DOCTYPE svg PUBLIC "-//W3C//DTD SVG 1.1//EN" "http://www.w3.org/Graphics/SVG/1.1/DTD/svg11.dtd">
<svg version="1.1" id="Layer_1" xmlns="http://www.w3.org/2000/svg" xmlns:xlink="http://www.w3.org/1999/xlink" x="0px" y="0px"
	 viewBox="0 0 146.2 162.8" enable-background="new 0 0 146.2 162.8" xml:space="preserve">
<polyline opacity="0.5" fill="#0000FF" stroke="#0000FF" stroke-width="0.797" stroke-miterlimit="10" points="95.5,124.4 1.2,81.5 
	1,81.6 95.9,38.7 "/>
<g>
	<defs>
		<polyline id="SVGID_1_" points="1.3,303.8 195.5,303.8 195.5,-141.1 1.3,-141.1 		"/>
	</defs>
	<clipPath id="SVGID_2_">
		<use xlink:href="#SVGID_1_"  overflow="visible"/>
	</clipPath>
</g>
<g>
	<defs>
		<polyline id="SVGID_3_" points="-140.5,162 -140.5,0.6 337.2,0.6 337.2,162 		"/>
	</defs>
	<clipPath id="SVGID_4_">
		<use xlink:href="#SVGID_3_"  overflow="visible"/>
	</clipPath>
</g>
<path fill="none" stroke="#000000" stroke-width="0.3985" stroke-miterlimit="10" d="M195.5,81.3"/>
<line fill="none" stroke="#000000" stroke-width="0.3985" stroke-miterlimit="10" x1="1.3" y1="81.3" x2="144.9" y2="81.3"/>
<line fill="none" stroke="#000000" stroke-width="0.3985" stroke-miterlimit="10" x1="1.3" y1="162" x2="1.3" y2="0.6"/>
<g>
	<defs>
		<rect id="SVGID_5_" x="1.3" y="0.6" width="194.3" height="161.4"/>
	</defs>
	<clipPath id="SVGID_6_">
		<use xlink:href="#SVGID_5_"  overflow="visible"/>
	</clipPath>
	<polyline clip-path="url(#SVGID_6_)" fill="#FFFFFF" stroke="#0000FF" stroke-width="0.797" stroke-miterlimit="10" points="
		96.6,37.7 96.8,37.6 97.2,37.2 97.6,36.8 98.1,36.5 98.5,36.1 98.9,35.8 99.4,35.4 99.8,35 100.3,34.6 100.7,34.3 101.2,33.9 
		101.6,33.5 102.1,33.2 102.6,32.8 103,32.4 103.5,32 104,31.6 104.5,31.2 104.9,30.9 105.4,30.5 105.9,30.1 106.4,29.7 106.9,29.3 
		107.4,28.9 107.9,28.5 108.4,28.1 109,27.7 109.5,27.3 110,26.9 110.5,26.5 111.1,26.1 111.6,25.7 112.1,25.2 112.7,24.8 
		113.2,24.4 113.8,24 114.3,23.6 114.9,23.1 115.4,22.7 116,22.3 116.6,21.9 117.2,21.4 117.7,21 118.3,20.5 118.9,20.1 119.5,19.7 
		120.1,19.2 120.7,18.8 121.3,18.3 121.9,17.9 122.5,17.4 123.1,17 123.8,16.5 124.4,16.1 125,15.6 125.7,15.1 126.3,14.7 
		126.9,14.2 127.6,13.7 128.3,13.2 128.9,12.8 129.6,12.3 130.2,11.8 130.9,11.3 131.6,10.8 132.3,10.4 133,9.9 133.6,9.4 
		134.3,8.9 135,8.4 135.7,7.9 136.5,7.4 137.2,6.9 137.9,6.3 138.6,5.8 139.3,5.3 140.1,4.8 140.8,4.3 141.6,3.8 142.3,3.2 
		143.1,2.7 143.8,2.2 144.6,1.6 145.4,1.1 146.1,0.6 146.9,0 147.7,-0.5 148.5,-1.1 149.3,-1.6 150.1,-2.2 150.9,-2.8 151.7,-3.3 
		152.5,-3.9 153.4,-4.4 154.2,-5 155,-5.6 155.9,-6.2 156.7,-6.7 157.6,-7.3 158.4,-7.9 159.3,-8.5 160.2,-9.1 161,-9.7 
		161.9,-10.3 162.8,-10.9 163.7,-11.5 164.6,-12.1 165.5,-12.7 166.4,-13.3 167.3,-14 168.2,-14.6 169.2,-15.2 170.1,-15.8 
		171,-16.5 172,-17.1 172.9,-17.8 173.9,-18.4 174.9,-19 175.8,-19.7 176.8,-20.4 177.8,-21 178.8,-21.7 179.8,-22.3 180.8,-23 
		181.8,-23.7 182.8,-24.4 183.8,-25 184.9,-25.7 185.9,-26.4 186.9,-27.1 188,-27.8 189,-28.5 190.1,-29.2 191.2,-29.9 192.2,-30.6 
		193.3,-31.4 194.4,-32.1 195.5,-32.8 196.6,-33.5 197.7,-34.3 198.8,-35 200,-35.7 201.1,-36.5 202.2,-37.2 203.4,-38 204.5,-38.7 
		205.7,-39.5 206.9,-40.3 208,-41 209.2,-41.8 210.4,-42.6 211.6,-43.4 212.8,-44.2 214,-45 215.3,-45.8 216.5,-46.6 217.7,-47.4 
		219,-48.2 220.2,-49 221.5,-49.8 222.7,-50.7 224,-51.5 225.3,-52.3 226.6,-53.2 227.9,-54 229.2,-54.9 230.5,-55.7 231.8,-56.6 
		233.2,-57.4 234.5,-58.3 235.9,-59.2 237.2,-60.1 238.6,-61 240,-61.8 241.4,-62.7 242.7,-63.6 244.1,-64.6 245.6,-65.5 247,-66.4 
		248.4,-67.3 249.8,-68.2 251.3,-69.2 252.7,-70.1 254.2,-71 255.7,-72 257.2,-72.9 258.7,-73.9 260.2,-74.9 261.7,-75.8 
		263.2,-76.8 264.7,-77.8 266.3,-78.8 267.8,-79.8 269.4,-80.8 270.9,-81.8 272.5,-82.8 274.1,-83.8 275.7,-84.8 277.3,-85.9 
		278.9,-86.9 280.5,-88 282.2,-89 283.8,-90.1 285.5,-91.1 287.1,-92.2 288.8,-93.3 290.5,-94.3 292.2,-95.4 293.9,-96.5 
		295.6,-97.6 297.4,-98.7 299.1,-99.8 300.9,-100.9 302.6,-102.1 304.4,-103.2 306.2,-104.3 308,-105.5 309.8,-106.6 311.6,-107.8 
		313.4,-109 315.3,-110.1 317.1,-111.3 319,-112.5 320.9,-113.7 322.7,-114.9 324.6,-116.1 326.5,-117.3 328.5,-118.5 330.4,-119.8 
		332.4,-121 334.3,-122.2 336.3,-123.5 338.2,-124.7 340.2,-126 342.3,-127.3 344.3,-128.6 346.3,-129.9 348.3,-131.1 350.4,-132.5 
		352.5,-133.8 354.5,-135.1 356.6,-136.4 358.7,-137.7 360.9,-139.1 363,-140.4 365.1,-141.8 367.3,-143.2 369.5,-144.5 
		371.6,-145.9 373.8,-147.3 376,-148.7 378.3,-150.1 380.5,-151.5 382.8,-152.9 385,-154.4 387.3,-155.8 389.6,-157.3 391.9,-158.7 
		394.2,-160.2 396.6,-161.7 398.9,-163.1 401.3,-164.6 403.6,-166.1 406,-167.6 408.4,-169.2 410.9,-170.7 413.3,-172.2 
		415.8,-173.8 418.2,-175.3 420.7,-176.9 423.2,-178.5 425.7,-180.1 428.2,-181.6 430.8,-183.2 433.3,-184.9 435.9,-186.5 
		438.5,-188.1 441.1,-189.8 443.7,-191.4 446.4,-193.1 449,-194.7 451.7,-196.4 454.4,-198.1 457.1,-199.8 459.8,-201.5 
		462.5,-203.2 465.3,-205 468,-206.7 470.8,-208.5 473.6,-210.2 476.4,-212 479.3,-213.8 482.1,-215.6 485,-217.4 487.9,-219.2 
		490.8,-221 493.7,-222.9 496.7,-224.7 499.6,-226.6 502.6,-228.4 505.6,-230.3 508.6,-232.2 511.6,-234.1 514.7,-236 517.8,-238 
		520.8,-239.9 523.9,-241.9 527.1,-243.8 530.2,-245.8 533.4,-247.8 536.6,-249.8 539.8,-251.8 543,-253.8 546.2,-255.8 
		549.5,-257.9 552.8,-259.9 556.1,-262 559.4,-264.1 562.7,-266.2 566.1,-268.3 569.4,-270.4 572.9,-272.5 576.3,-274.7 
		579.7,-276.8 583.2,-279 586.7,-281.2 590.2,-283.4 593.7,-285.6 597.2,-287.8 600.8,-290.1 604.4,-292.3 608,-294.6 611.6,-296.9 
		615.3,-299.2 619,-301.5 622.7,-303.8 626.4,-306.1 630.1,-308.5 633.9,-310.8 637.7,-313.2 641.5,-315.6 645.4,-318 649.2,-320.4 
		653.1,-322.8 	"/>
	<polyline clip-path="url(#SVGID_6_)" fill="#FFFFFF" stroke="#0000FF" stroke-width="0.797" stroke-miterlimit="10" points="
		653.2,485.5 649.3,483.1 645.4,480.7 641.6,478.3 637.8,475.9 634,473.5 630.2,471.1 626.5,468.8 622.8,466.5 619.1,464.1 
		615.4,461.8 611.7,459.5 608.1,457.3 604.5,455 600.9,452.7 597.3,450.5 593.8,448.3 590.2,446.1 586.7,443.9 583.3,441.7 
		579.8,439.5 576.4,437.4 572.9,435.2 569.5,433.1 566.2,431 562.8,428.9 559.4,426.8 556.1,424.7 552.8,422.6 549.6,420.6 
		546.3,418.5 543.1,416.5 539.8,414.5 536.6,412.4 533.4,410.4 530.3,408.5 527.1,406.5 524,404.5 520.9,402.6 517.8,400.6 
		514.8,398.7 511.7,396.8 508.7,394.9 505.7,393 502.7,391.1 499.7,389.2 496.7,387.4 493.8,385.5 490.9,383.7 488,381.9 
		485.1,380.1 482.2,378.2 479.3,376.5 476.5,374.7 473.7,372.9 470.9,371.1 468.1,369.4 465.3,367.6 462.6,365.9 459.8,364.2 
		457.1,362.5 454.4,360.8 451.7,359.1 449.1,357.4 446.4,355.7 443.8,354.1 441.2,352.4 438.6,350.8 436,349.1 433.4,347.5 
		430.8,345.9 428.3,344.3 425.8,342.7 423.3,341.1 420.8,339.6 418.3,338 415.8,336.4 413.4,334.9 410.9,333.4 408.5,331.8 
		406.1,330.3 403.7,328.8 401.3,327.3 399,325.8 396.6,324.3 394.3,322.8 391.9,321.4 389.6,319.9 387.4,318.5 385.1,317 
		382.8,315.6 380.6,314.2 378.3,312.8 376.1,311.4 373.9,310 371.7,308.6 369.5,307.2 367.3,305.8 365.2,304.4 363,303.1 
		360.9,301.7 358.8,300.4 356.7,299.1 354.6,297.7 352.5,296.4 350.4,295.1 348.4,293.8 346.3,292.5 344.3,291.2 342.3,289.9 
		340.3,288.7 338.3,287.4 336.3,286.1 334.4,284.9 332.4,283.7 330.5,282.4 328.5,281.2 326.6,280 324.7,278.7 322.8,277.5 
		320.9,276.3 319,275.1 317.2,274 315.3,272.8 313.5,271.6 311.6,270.5 309.8,269.3 308,268.1 306.2,267 304.4,265.9 302.7,264.7 
		300.9,263.6 299.1,262.5 297.4,261.4 295.7,260.3 294,259.2 292.2,258.1 290.5,257 288.9,255.9 287.2,254.8 285.5,253.8 
		283.9,252.7 282.2,251.7 280.6,250.6 279,249.6 277.3,248.5 275.7,247.5 274.1,246.5 272.5,245.5 271,244.4 269.4,243.4 
		267.8,242.4 266.3,241.4 264.7,240.5 263.2,239.5 261.7,238.5 260.2,237.5 258.7,236.6 257.2,235.6 255.7,234.6 254.2,233.7 
		252.8,232.7 251.3,231.8 249.9,230.9 248.4,229.9 247,229 245.6,228.1 244.2,227.2 242.8,226.3 241.4,225.4 240,224.5 238.6,223.6 
		237.3,222.7 235.9,221.8 234.6,221 233.2,220.1 231.9,219.2 230.5,218.4 229.2,217.5 227.9,216.7 226.6,215.8 225.3,215 224,214.1 
		222.8,213.3 221.5,212.5 220.2,211.7 219,210.8 217.7,210 216.5,209.2 215.3,208.4 214.1,207.6 212.8,206.8 211.6,206 210.4,205.2 
		209.2,204.5 208.1,203.7 206.9,202.9 205.7,202.2 204.6,201.4 203.4,200.6 202.3,199.9 201.1,199.1 200,198.4 198.9,197.6 
		197.7,196.9 196.6,196.2 195.5,195.4 194.4,194.7 193.3,194 192.3,193.3 191.2,192.6 190.1,191.9 189.1,191.1 188,190.4 187,189.8 
		185.9,189.1 184.9,188.4 183.8,187.7 182.8,187 181.8,186.3 180.8,185.7 179.8,185 178.8,184.3 177.8,183.7 176.8,183 175.9,182.3 
		174.9,181.7 173.9,181 173,180.4 172,179.8 171.1,179.1 170.1,178.5 169.2,177.9 168.3,177.2 167.3,176.6 166.4,176 165.5,175.4 
		164.6,174.8 163.7,174.1 162.8,173.5 161.9,172.9 161.1,172.3 160.2,171.7 159.3,171.1 158.4,170.6 157.6,170 156.7,169.4 
		155.9,168.8 155,168.2 154.2,167.7 153.4,167.1 152.6,166.5 151.7,166 150.9,165.4 150.1,164.8 149.3,164.3 148.5,163.7 
		147.7,163.2 146.9,162.6 146.2,162.1 145.4,161.5 144.6,161 143.9,160.5 143.1,159.9 142.3,159.4 141.6,158.9 140.8,158.4 
		140.1,157.8 139.4,157.3 138.6,156.8 137.9,156.3 137.2,155.8 136.5,155.3 135.8,154.8 135.1,154.3 134.4,153.8 133.7,153.3 
		133,152.8 132.3,152.3 131.6,151.8 130.9,151.3 130.3,150.8 129.6,150.3 128.9,149.9 128.3,149.4 127.6,148.9 127,148.4 126.3,148 
		125.7,147.5 125,147 124.4,146.6 123.8,146.1 123.2,145.7 122.5,145.2 121.9,144.8 121.3,144.3 120.7,143.9 120.1,143.4 119.5,143 
		118.9,142.5 118.3,142.1 117.8,141.7 117.2,141.2 116.6,140.8 116,140.4 115.5,139.9 114.9,139.5 114.3,139.1 113.8,138.7 
		113.2,138.2 112.7,137.8 112.1,137.4 111.6,137 111.1,136.6 110.5,136.2 110,135.8 109.5,135.3 109,134.9 108.5,134.5 107.9,134.1 
		107.4,133.7 106.9,133.3 106.4,133 105.9,132.6 105.4,132.2 105,131.8 104.5,131.4 104,131 103.5,130.6 103,130.2 102.6,129.9 
		102.1,129.5 101.6,129.1 101.2,128.7 100.7,128.4 100.3,128 99.8,127.6 99.4,127.2 98.9,126.9 98.5,126.5 98.1,126.2 97.6,125.8 
		97.2,125.4 96.8,125.1 96.6,124.9 	"/>
	<polyline clip-path="url(#SVGID_6_)" fill="#FFFFFF" stroke="#0000FF" stroke-width="0.797" stroke-miterlimit="10" points="
		96.6,124.9 96.4,124.7 96,124.4 95.5,124 95.1,123.7 94.7,123.3 94.3,123 93.9,122.6 93.5,122.3 93.1,121.9 92.7,121.6 92.4,121.2 
		92,120.9 91.6,120.6 91.2,120.2 90.8,119.9 90.5,119.5 90.1,119.2 89.7,118.9 89.4,118.6 89,118.2 88.7,117.9 88.3,117.6 88,117.2 
		87.6,116.9 87.3,116.6 86.9,116.3 86.6,116 86.3,115.6 85.9,115.3 85.6,115 85.3,114.7 85,114.4 84.7,114.1 84.3,113.7 84,113.4 
		83.7,113.1 83.4,112.8 83.1,112.5 82.8,112.2 82.5,111.9 82.2,111.6 81.9,111.3 81.7,111 81.4,110.7 81.1,110.4 80.8,110.1 
		80.5,109.8 80.3,109.5 80,109.2 79.7,108.9 79.5,108.6 79.2,108.3 78.9,108 78.7,107.8 78.4,107.5 78.2,107.2 77.9,106.9 
		77.7,106.6 77.4,106.3 77.2,106 77,105.7 76.7,105.5 76.5,105.2 76.3,104.9 76,104.6 75.8,104.3 75.6,104.1 75.4,103.8 75.2,103.5 
		75,103.2 74.7,103 74.5,102.7 74.3,102.4 74.1,102.1 73.9,101.9 73.7,101.6 73.5,101.3 73.3,101 73.2,100.8 73,100.5 72.8,100.2 
		72.6,100 72.4,99.7 72.3,99.4 72.1,99.2 71.9,98.9 71.7,98.6 71.6,98.4 71.4,98.1 71.3,97.9 71.1,97.6 70.9,97.3 70.8,97.1 
		70.6,96.8 70.5,96.6 70.3,96.3 70.2,96 70.1,95.8 69.9,95.5 69.8,95.3 69.7,95 69.5,94.8 69.4,94.5 69.3,94.2 69.1,94 69,93.7 
		68.9,93.5 68.8,93.2 68.7,93 68.6,92.7 68.5,92.5 68.3,92.2 68.2,92 68.1,91.7 68,91.5 67.9,91.2 67.8,91 67.8,90.7 67.7,90.5 
		67.6,90.2 67.5,90 67.4,89.7 67.3,89.5 67.3,89.2 67.2,89 67.1,88.7 67,88.5 67,88.3 66.9,88 66.8,87.8 66.8,87.5 66.7,87.3 
		66.7,87 66.6,86.8 66.6,86.5 66.5,86.3 66.5,86 66.4,85.8 66.4,85.6 66.3,85.3 66.3,85.1 66.3,84.8 66.2,84.6 66.2,84.3 66.2,84.1 
		66.1,83.9 66.1,83.6 66.1,83.4 66.1,83.1 66.1,82.9 66.1,82.6 66,82.4 66,82.2 66,81.9 66,81.7 66,81.4 66,81.2 66,81 66,80.7 
		66,80.5 66,80.2 66.1,80 66.1,79.7 66.1,79.5 66.1,79.3 66.1,79 66.1,78.8 66.2,78.5 66.2,78.3 66.2,78 66.3,77.8 66.3,77.6 
		66.3,77.3 66.4,77.1 66.4,76.8 66.5,76.6 66.5,76.3 66.6,76.1 66.6,75.9 66.7,75.6 66.7,75.4 66.8,75.1 66.8,74.9 66.9,74.6 
		67,74.4 67,74.1 67.1,73.9 67.2,73.6 67.3,73.4 67.3,73.1 67.4,72.9 67.5,72.7 67.6,72.4 67.7,72.2 67.8,71.9 67.8,71.7 67.9,71.4 
		68,71.2 68.1,70.9 68.2,70.7 68.3,70.4 68.4,70.2 68.6,69.9 68.7,69.7 68.8,69.4 68.9,69.1 69,68.9 69.1,68.6 69.3,68.4 69.4,68.1 
		69.5,67.9 69.6,67.6 69.8,67.4 69.9,67.1 70.1,66.9 70.2,66.6 70.3,66.3 70.5,66.1 70.6,65.8 70.8,65.6 70.9,65.3 71.1,65 
		71.2,64.8 71.4,64.5 71.6,64.2 71.7,64 71.9,63.7 72.1,63.5 72.3,63.2 72.4,62.9 72.6,62.7 72.8,62.4 73,62.1 73.2,61.9 73.3,61.6 
		73.5,61.3 73.7,61 73.9,60.8 74.1,60.5 74.3,60.2 74.5,60 74.7,59.7 75,59.4 75.2,59.1 75.4,58.8 75.6,58.6 75.8,58.3 76,58 
		76.3,57.7 76.5,57.5 76.7,57.2 77,56.9 77.2,56.6 77.4,56.3 77.7,56 77.9,55.7 78.2,55.5 78.4,55.2 78.7,54.9 78.9,54.6 79.2,54.3 
		79.5,54 79.7,53.7 80,53.4 80.3,53.1 80.5,52.8 80.8,52.5 81.1,52.2 81.4,51.9 81.6,51.6 81.9,51.3 82.2,51 82.5,50.7 82.8,50.4 
		83.1,50.1 83.4,49.8 83.7,49.5 84,49.2 84.3,48.9 84.7,48.6 85,48.3 85.3,47.9 85.6,47.6 85.9,47.3 86.3,47 86.6,46.7 86.9,46.4 
		87.3,46 87.6,45.7 88,45.4 88.3,45.1 88.7,44.7 89,44.4 89.4,44.1 89.7,43.8 90.1,43.4 90.5,43.1 90.8,42.8 91.2,42.4 91.6,42.1 
		92,41.7 92.3,41.4 92.7,41.1 93.1,40.7 93.5,40.4 93.9,40 94.3,39.7 94.7,39.3 95.1,39 95.5,38.6 95.9,38.3 96.4,37.9 96.6,37.7 	
		"/>
</g>
<text transform="matrix(1 0 0 1 138.5148 78.3146)" font-family="'cmmi10'" font-size="9.9626">x</text>
<text transform="matrix(1 0 0 1 4.7758 8.4298)" font-family="'cmmi10'" font-size="9.9626">y</text>
<line fill="none" x1="1.1" y1="81.3" x2="102.5" y2="32.8"/>
<line fill="none" x1="102.5" y1="32.8" x2="102.5" y2="130.1"/>
<path fill="#0000FF" stroke="#0000FF" stroke-width="0.797" stroke-miterlimit="10" d="M96.3,125"/>
<path fill="#0000FF" stroke="#0000FF" stroke-width="0.797" stroke-miterlimit="10" d="M96.3,38.1"/>
<path fill="none" stroke="#000000" stroke-width="0.3985" stroke-miterlimit="10" d="M194.6,81.2"/>
<path fill="none" stroke="#000000" stroke-width="0.3985" stroke-miterlimit="10" d="M145.5,81.2"/>
<line fill="none" stroke="#000000" stroke-width="0.3985" stroke-miterlimit="10" x1="0.3" y1="81.2" x2="144.7" y2="81.2"/>
<circle stroke="#000000" stroke-width="0.3985" stroke-miterlimit="10" cx="95.2" cy="39.1" r="2.2"/>
</svg>
