<?xml version="1.0" encoding="utf-8"?>
<!-- Generator: Adobe Illustrator 22.1.0, SVG Export Plug-In . SVG Version: 6.00 Build 0)  -->
<svg version="1.1" id="Layer_1" xmlns="http://www.w3.org/2000/svg" xmlns:xlink="http://www.w3.org/1999/xlink" x="0px" y="0px"
	 viewBox="0 0 115.8 135.7" enable-background="new 0 0 115.8 135.7" xml:space="preserve">
<g>
	<defs>
		<polyline id="SVGID_1_" points="-45.8,289.9 148.5,289.9 148.5,-155 -45.8,-155 		"/>
	</defs>
	<clipPath id="SVGID_2_">
		<use xlink:href="#SVGID_1_"  overflow="visible"/>
	</clipPath>
	<path clip-path="url(#SVGID_2_)" fill="none" stroke="#BFBFBF" stroke-width="0.3985" stroke-miterlimit="10" d="M148.5,148.2
		V-13.2 M116.1,148.2V-13.2 M83.8,148.2V-13.2 M51.4,148.2V-13.2 M-13.4,148.2V-13.2 M-45.8,148.2V-13.2"/>
</g>
<g>
	<defs>
		<polyline id="SVGID_3_" points="-187.5,148.2 -187.5,-13.2 290.2,-13.2 290.2,148.2 		"/>
	</defs>
	<clipPath id="SVGID_4_">
		<use xlink:href="#SVGID_3_"  overflow="visible"/>
	</clipPath>
	<path clip-path="url(#SVGID_4_)" fill="none" stroke="#BFBFBF" stroke-width="0.3985" stroke-miterlimit="10" d="M-45.8,13.7h194.3
		 M-45.8,121.3h194.3"/>
</g>
<g>
	<defs>
		<polyline id="SVGID_5_" points="-45.8,289.9 148.5,289.9 148.5,-155 -45.8,-155 		"/>
	</defs>
	<clipPath id="SVGID_6_">
		<use xlink:href="#SVGID_5_"  overflow="visible"/>
	</clipPath>
</g>
<g>
	<defs>
		<polyline id="SVGID_7_" points="-187.5,148.2 -187.5,-13.2 290.2,-13.2 290.2,148.2 		"/>
	</defs>
	<clipPath id="SVGID_8_">
		<use xlink:href="#SVGID_7_"  overflow="visible"/>
	</clipPath>
</g>
<line fill="none" stroke="#000000" stroke-miterlimit="10" x1="-45.8" y1="67.5" x2="53.7" y2="67.5"/>
<line fill="none" stroke="#000000" stroke-miterlimit="10" x1="19" y1="148.2" x2="19" y2="-13.2"/>
<g>
	<defs>
		<rect id="SVGID_9_" x="-45.8" y="-13.2" width="194.3" height="161.4"/>
	</defs>
	<clipPath id="SVGID_10_">
		<use xlink:href="#SVGID_9_"  overflow="visible"/>
	</clipPath>
	<polyline clip-path="url(#SVGID_10_)" fill="none" stroke="#00FF00" stroke-width="1.5" stroke-miterlimit="10" points="19,67.5 
		19.1,67.5 19.1,67.5 19.2,67.5 19.3,67.5 19.3,67.5 19.4,67.5 19.4,67.5 19.5,67.5 19.6,67.5 19.6,67.5 19.7,67.5 19.8,67.5 
		19.8,67.5 19.9,67.5 20,67.5 20,67.5 20.1,67.5 20.2,67.5 20.2,67.5 20.3,67.5 20.4,67.5 20.4,67.5 20.5,67.5 20.5,67.5 20.6,67.5 
		20.7,67.4 20.7,67.4 20.8,67.4 20.9,67.4 20.9,67.4 21,67.4 21.1,67.4 21.1,67.4 21.2,67.4 21.3,67.4 21.3,67.4 21.4,67.4 
		21.5,67.4 21.5,67.4 21.6,67.4 21.7,67.4 21.7,67.4 21.8,67.4 21.8,67.4 21.9,67.4 22,67.4 22,67.4 22.1,67.4 22.2,67.4 22.2,67.4 
		22.3,67.3 22.4,67.3 22.4,67.3 22.5,67.3 22.6,67.3 22.6,67.3 22.7,67.3 22.8,67.3 22.8,67.3 22.9,67.3 22.9,67.3 23,67.3 
		23.1,67.3 23.1,67.3 23.2,67.3 23.3,67.3 23.3,67.2 23.4,67.2 23.5,67.2 23.5,67.2 23.6,67.2 23.7,67.2 23.7,67.2 23.8,67.2 
		23.9,67.2 23.9,67.2 24,67.2 24.1,67.2 24.1,67.1 24.2,67.1 24.2,67.1 24.3,67.1 24.4,67.1 24.4,67.1 24.5,67.1 24.6,67.1 
		24.6,67.1 24.7,67.1 24.8,67.1 24.8,67 24.9,67 25,67 25,67 25.1,67 25.2,67 25.2,67 25.3,67 25.3,67 25.4,67 25.5,66.9 25.5,66.9 
		25.6,66.9 25.7,66.9 25.7,66.9 25.8,66.9 25.9,66.9 25.9,66.9 26,66.9 26.1,66.8 26.1,66.8 26.2,66.8 26.3,66.8 26.3,66.8 
		26.4,66.8 26.4,66.8 26.5,66.8 26.6,66.7 26.6,66.7 26.7,66.7 26.8,66.7 26.8,66.7 26.9,66.7 27,66.7 27,66.7 27.1,66.6 27.2,66.6 
		27.2,66.6 27.3,66.6 27.4,66.6 27.4,66.6 27.5,66.6 27.6,66.5 27.6,66.5 27.7,66.5 27.7,66.5 27.8,66.5 27.9,66.5 27.9,66.5 
		28,66.4 28.1,66.4 28.1,66.4 28.2,66.4 28.3,66.4 28.3,66.4 28.4,66.4 28.5,66.3 28.5,66.3 28.6,66.3 28.7,66.3 28.7,66.3 
		28.8,66.3 28.8,66.2 28.9,66.2 29,66.2 29,66.2 29.1,66.2 29.2,66.2 29.2,66.1 29.3,66.1 29.4,66.1 29.4,66.1 29.5,66.1 29.6,66.1 
		29.6,66 29.7,66 29.8,66 29.8,66 29.9,66 29.9,65.9 30,65.9 30.1,65.9 30.1,65.9 30.2,65.9 30.3,65.9 30.3,65.8 30.4,65.8 
		30.5,65.8 30.5,65.8 30.6,65.8 30.7,65.7 30.7,65.7 30.8,65.7 30.9,65.7 30.9,65.7 31,65.6 31.1,65.6 31.1,65.6 31.2,65.6 
		31.2,65.6 31.3,65.5 31.4,65.5 31.4,65.5 31.5,65.5 31.6,65.5 31.6,65.4 31.7,65.4 31.8,65.4 31.8,65.4 31.9,65.4 32,65.3 32,65.3 
		32.1,65.3 32.2,65.3 32.2,65.2 32.3,65.2 32.3,65.2 32.4,65.2 32.5,65.2 32.5,65.1 32.6,65.1 32.7,65.1 32.7,65.1 32.8,65 32.9,65 
		32.9,65 33,65 33.1,64.9 33.1,64.9 33.2,64.9 33.3,64.9 33.3,64.9 33.4,64.8 33.4,64.8 33.5,64.8 33.6,64.8 33.6,64.7 33.7,64.7 
		33.8,64.7 33.8,64.7 33.9,64.6 34,64.6 34,64.6 34.1,64.6 34.2,64.5 34.2,64.5 34.3,64.5 34.4,64.5 34.4,64.4 34.5,64.4 34.6,64.4 
		34.6,64.4 34.7,64.3 34.7,64.3 34.8,64.3 34.9,64.2 34.9,64.2 35,64.2 35.1,64.2 35.1,64.1 35.2,64.1 35.3,64.1 35.3,64.1 35.4,64 
		35.5,64 35.5,64 35.6,64 35.7,63.9 35.7,63.9 35.8,63.9 35.8,63.8 35.9,63.8 36,63.8 36,63.8 36.1,63.7 36.2,63.7 36.2,63.7 
		36.3,63.6 36.4,63.6 36.4,63.6 36.5,63.6 36.6,63.5 36.6,63.5 36.7,63.5 36.8,63.4 36.8,63.4 36.9,63.4 36.9,63.3 37,63.3 
		37.1,63.3 37.1,63.3 37.2,63.2 37.3,63.2 37.3,63.2 37.4,63.1 37.5,63.1 37.5,63.1 37.6,63 37.7,63 37.7,63 37.8,63 37.9,62.9 
		37.9,62.9 38,62.9 38.1,62.8 38.1,62.8 38.2,62.8 38.2,62.7 38.3,62.7 38.4,62.7 38.4,62.6 38.5,62.6 38.6,62.6 38.6,62.5 
		38.7,62.5 38.8,62.5 38.8,62.4 38.9,62.4 39,62.4 39,62.3 39.1,62.3 39.2,62.3 39.2,62.2 39.3,62.2 39.3,62.2 39.4,62.1 39.5,62.1 
		39.5,62.1 39.6,62 39.7,62 39.7,62 39.8,61.9 39.9,61.9 39.9,61.9 40,61.8 40.1,61.8 40.1,61.8 40.2,61.7 40.3,61.7 40.3,61.7 
		40.4,61.6 40.5,61.6 40.5,61.5 40.6,61.5 40.6,61.5 40.7,61.4 40.8,61.4 40.8,61.4 40.9,61.3 41,61.3 41,61.3 41.1,61.2 41.2,61.2 
		41.2,61.1 41.3,61.1 41.4,61.1 41.4,61 41.5,61 41.6,61 41.6,60.9 41.7,60.9 41.7,60.8 41.8,60.8 41.9,60.8 41.9,60.7 42,60.7 
		42.1,60.7 42.1,60.6 42.2,60.6 42.3,60.5 42.3,60.5 42.4,60.5 42.5,60.4 42.5,60.4 42.6,60.3 42.7,60.3 42.7,60.3 42.8,60.2 
		42.8,60.2 42.9,60.1 43,60.1 43,60.1 43.1,60 43.2,60 43.2,59.9 43.3,59.9 43.4,59.9 43.4,59.8 43.5,59.8 43.6,59.7 43.6,59.7 
		43.7,59.7 43.8,59.6 43.8,59.6 43.9,59.5 44,59.5 	"/>
	<polyline clip-path="url(#SVGID_10_)" fill="none" stroke="#00FF00" stroke-width="1.5" stroke-miterlimit="10" points="64.8,40.5 
		64.9,40.5 65,40.4 65,40.3 65.1,40.2 65.1,40.2 65.2,40.1 65.3,40 65.3,39.9 65.4,39.9 65.5,39.8 65.5,39.7 65.6,39.6 65.7,39.5 
		65.7,39.5 65.8,39.4 65.9,39.3 65.9,39.2 66,39.2 66.1,39.1 66.1,39 66.2,38.9 66.2,38.8 66.3,38.8 66.4,38.7 66.4,38.6 66.5,38.5 
		66.6,38.4 66.6,38.4 66.7,38.3 66.8,38.2 66.8,38.1 66.9,38 67,38 67,37.9 67.1,37.8 67.2,37.7 67.2,37.6 67.3,37.6 67.4,37.5 
		67.4,37.4 67.5,37.3 67.5,37.2 67.6,37.2 67.7,37.1 67.7,37 67.8,36.9 67.9,36.8 67.9,36.8 68,36.7 68.1,36.6 68.1,36.5 68.2,36.4 
		68.3,36.3 68.3,36.3 68.4,36.2 68.5,36.1 68.5,36 68.6,35.9 68.6,35.9 68.7,35.8 68.8,35.7 68.8,35.6 68.9,35.5 69,35.4 69,35.4 
		69.1,35.3 69.2,35.2 69.2,35.1 69.3,35 69.4,34.9 69.4,34.9 69.5,34.8 69.6,34.7 69.6,34.6 69.7,34.5 69.7,34.4 69.8,34.4 
		69.9,34.3 69.9,34.2 70,34.1 70.1,34 70.1,33.9 70.2,33.8 70.3,33.8 70.3,33.7 70.4,33.6 70.5,33.5 70.5,33.4 70.6,33.3 70.7,33.2 
		70.7,33.2 70.8,33.1 70.9,33 70.9,32.9 71,32.8 71,32.7 71.1,32.6 71.2,32.6 71.2,32.5 71.3,32.4 71.4,32.3 71.4,32.2 71.5,32.1 
		71.6,32 71.6,31.9 71.7,31.9 71.8,31.8 71.8,31.7 71.9,31.6 72,31.5 72,31.4 72.1,31.3 72.1,31.2 72.2,31.2 72.3,31.1 72.3,31 
		72.4,30.9 72.5,30.8 72.5,30.7 72.6,30.6 72.7,30.5 72.7,30.4 72.8,30.4 72.9,30.3 72.9,30.2 73,30.1 73.1,30 73.1,29.9 73.2,29.8 
		73.2,29.7 73.3,29.6 73.4,29.5 73.4,29.4 73.5,29.4 73.6,29.3 73.6,29.2 73.7,29.1 73.8,29 73.8,28.9 73.9,28.8 74,28.7 74,28.6 
		74.1,28.5 74.2,28.4 74.2,28.4 74.3,28.3 74.4,28.2 74.4,28.1 74.5,28 74.5,27.9 74.6,27.8 74.7,27.7 74.7,27.6 74.8,27.5 
		74.9,27.4 74.9,27.3 75,27.2 75.1,27.2 75.1,27.1 75.2,27 75.3,26.9 75.3,26.8 75.4,26.7 75.5,26.6 75.5,26.5 75.6,26.4 75.6,26.3 
		75.7,26.2 75.8,26.1 75.8,26 75.9,25.9 76,25.8 76,25.7 76.1,25.6 76.2,25.6 76.2,25.5 76.3,25.4 76.4,25.3 76.4,25.2 76.5,25.1 
		76.6,25 76.6,24.9 76.7,24.8 76.8,24.7 76.8,24.6 76.9,24.5 76.9,24.4 77,24.3 77.1,24.2 77.1,24.1 77.2,24 77.3,23.9 77.3,23.8 
		77.4,23.7 77.5,23.6 77.5,23.5 77.6,23.4 77.7,23.3 77.7,23.2 77.8,23.1 77.9,23 77.9,22.9 78,22.8 78,22.7 78.1,22.7 78.2,22.6 
		78.2,22.5 78.3,22.4 78.4,22.3 78.4,22.2 78.5,22.1 78.6,22 78.6,21.9 78.7,21.8 78.8,21.7 78.8,21.6 78.9,21.5 79,21.4 79,21.3 
		79.1,21.2 79.1,21.1 79.2,21 79.3,20.9 79.3,20.8 79.4,20.7 79.5,20.6 79.5,20.5 79.6,20.4 79.7,20.3 79.7,20.2 79.8,20.1 79.9,20 
		79.9,19.9 80,19.8 80.1,19.7 80.1,19.6 80.2,19.4 80.3,19.3 80.3,19.2 80.4,19.1 80.4,19 80.5,18.9 80.6,18.8 80.6,18.7 80.7,18.6 
		80.8,18.5 80.8,18.4 80.9,18.3 81,18.2 81,18.1 81.1,18 81.2,17.9 81.2,17.8 81.3,17.7 81.4,17.6 81.4,17.5 81.5,17.4 81.5,17.3 
		81.6,17.2 81.7,17.1 81.7,17 81.8,16.9 81.9,16.8 81.9,16.7 82,16.6 82.1,16.5 82.1,16.3 82.2,16.2 82.3,16.1 82.3,16 82.4,15.9 
		82.5,15.8 82.5,15.7 82.6,15.6 82.6,15.5 82.7,15.4 82.8,15.3 82.8,15.2 82.9,15.1 83,15 83,14.9 83.1,14.8 83.2,14.7 83.2,14.5 
		83.3,14.4 83.4,14.3 83.4,14.2 83.5,14.1 83.6,14 83.6,13.9 83.7,13.8 83.8,13.7 	"/>
	<polyline clip-path="url(#SVGID_10_)" fill="none" stroke="#00FF00" stroke-width="1.5" stroke-miterlimit="10" points="56.9,49 
		57,49 57,48.9 57.1,48.8 57.2,48.8 57.2,48.7 57.3,48.7 57.4,48.6 57.4,48.5 57.5,48.5 57.6,48.4 57.6,48.3 57.7,48.3 57.8,48.2 
		57.8,48.1 57.9,48.1 58,48 58,47.9 58.1,47.9 58.1,47.8 58.2,47.8 58.3,47.7 58.3,47.6 58.4,47.6 58.5,47.5 58.5,47.4 58.6,47.4 
		58.7,47.3 58.7,47.2 58.8,47.2 58.9,47.1 58.9,47 59,47 59.1,46.9 59.1,46.8 59.2,46.8 59.2,46.7 59.3,46.6 59.4,46.6 59.4,46.5 
		59.5,46.4 59.6,46.4 59.6,46.3 59.7,46.2 59.8,46.2 59.8,46.1 59.9,46 60,46 60,45.9 60.1,45.8 60.2,45.7 60.2,45.7 60.3,45.6 
		60.4,45.5 60.4,45.5 60.5,45.4 60.5,45.3 60.6,45.3 60.7,45.2 60.7,45.1 60.8,45.1 60.9,45 60.9,44.9 61,44.9 61.1,44.8 61.1,44.7 
		61.2,44.6 61.3,44.6 61.3,44.5 61.4,44.4 61.5,44.4 61.5,44.3 61.6,44.2 61.6,44.1 61.7,44.1 61.8,44 61.8,43.9 61.9,43.9 62,43.8 
		62,43.7 62.1,43.6 62.2,43.6 62.2,43.5 62.3,43.4 62.4,43.4 62.4,43.3 62.5,43.2 62.6,43.1 62.6,43.1 62.7,43 62.7,42.9 62.8,42.9 
		62.9,42.8 62.9,42.7 63,42.6 63.1,42.6 63.1,42.5 63.2,42.4 63.3,42.3 63.3,42.3 63.4,42.2 63.5,42.1 63.5,42 63.6,42 63.7,41.9 
		63.7,41.8 63.8,41.7 63.9,41.7 63.9,41.6 64,41.5 64,41.4 64.1,41.4 64.2,41.3 64.2,41.2 64.3,41.1 64.4,41.1 64.4,41 64.5,40.9 
		64.6,40.8 64.6,40.8 64.7,40.7 64.8,40.6 64.8,40.5 	"/>
</g>
<text transform="matrix(1 0 0 1 108.0561 64.2683)" font-family="'TimesNewRomanPS-ItalicMT'" font-size="9.9626px">x</text>
<text transform="matrix(1 0 0 1 12.4264 10.2174)" font-family="'TimesNewRomanPS-ItalicMT'" font-size="9.9626px">y</text>
<path fill="none" stroke="#0000FF" stroke-width="1.5" stroke-miterlimit="10" d="M83.6,67.3"/>
<path fill="none" stroke="#0000FF" stroke-width="1.5" stroke-miterlimit="10" d="M19.4,67.3"/>
<polyline fill="none" stroke="#0000FF" stroke-width="0.797" stroke-miterlimit="10" points="61.5,71.9 61.6,71.8 61.6,71.8 "/>
<polyline fill="none" stroke="#0000FF" stroke-width="0.797" stroke-miterlimit="10" points="61.5,71.9 61.6,71.8 61.6,71.8 "/>
<g>
	<defs>
		<rect id="SVGID_11_" x="-45.8" y="-12.6" width="194.3" height="161.4"/>
	</defs>
	<clipPath id="SVGID_12_">
		<use xlink:href="#SVGID_11_"  overflow="visible"/>
	</clipPath>
	<polyline clip-path="url(#SVGID_12_)" fill="none" stroke="#00FF00" stroke-width="1.5" stroke-miterlimit="10" points="19,68.1 
		19,68.1 19.1,68.1 19.1,68.1 19.2,68.1 19.3,68.1 19.3,68.1 19.4,68.1 19.5,68.1 19.5,68.1 19.6,68.1 19.7,68.1 19.7,68.1 
		19.8,68.1 19.9,68.1 19.9,68.1 20,68.1 20.1,68.1 20.1,68.1 20.2,68.1 20.3,68.1 20.3,68.1 20.4,68.1 20.4,68.1 20.5,68.1 
		20.6,68.1 20.6,68.1 20.7,68.1 20.8,68.1 20.8,68.1 20.9,68.1 21,68.1 21,68.1 21.1,68.1 21.2,68.1 21.2,68.1 21.3,68.1 21.4,68.1 
		21.4,68.2 21.5,68.2 21.5,68.2 21.6,68.2 21.7,68.2 21.7,68.2 21.8,68.2 21.9,68.2 21.9,68.2 22,68.2 22.1,68.2 22.1,68.2 
		22.2,68.2 22.3,68.2 22.3,68.2 22.4,68.2 22.5,68.2 22.5,68.2 22.6,68.2 22.6,68.2 22.7,68.3 22.8,68.3 22.8,68.3 22.9,68.3 
		23,68.3 23,68.3 23.1,68.3 23.2,68.3 23.2,68.3 23.3,68.3 23.4,68.3 23.4,68.3 23.5,68.3 23.6,68.3 23.6,68.4 23.7,68.4 23.8,68.4 
		23.8,68.4 23.9,68.4 23.9,68.4 24,68.4 24.1,68.4 24.1,68.4 24.2,68.4 24.3,68.4 24.3,68.4 24.4,68.5 24.5,68.5 24.5,68.5 
		24.6,68.5 24.7,68.5 24.7,68.5 24.8,68.5 24.9,68.5 24.9,68.5 25,68.5 25,68.5 25.1,68.6 25.2,68.6 25.2,68.6 25.3,68.6 25.4,68.6 
		25.4,68.6 25.5,68.6 25.6,68.6 25.6,68.6 25.7,68.7 25.8,68.7 25.8,68.7 25.9,68.7 26,68.7 26,68.7 26.1,68.7 26.1,68.7 26.2,68.7 
		26.3,68.8 26.3,68.8 26.4,68.8 26.5,68.8 26.5,68.8 26.6,68.8 26.7,68.8 26.7,68.8 26.8,68.9 26.9,68.9 26.9,68.9 27,68.9 
		27.1,68.9 27.1,68.9 27.2,68.9 27.3,69 27.3,69 27.4,69 27.4,69 27.5,69 27.6,69 27.6,69 27.7,69.1 27.8,69.1 27.8,69.1 27.9,69.1 
		28,69.1 28,69.1 28.1,69.1 28.2,69.2 28.2,69.2 28.3,69.2 28.4,69.2 28.4,69.2 28.5,69.2 28.5,69.3 28.6,69.3 28.7,69.3 28.7,69.3 
		28.8,69.3 28.9,69.3 28.9,69.4 29,69.4 29.1,69.4 29.1,69.4 29.2,69.4 29.3,69.4 29.3,69.5 29.4,69.5 29.5,69.5 29.5,69.5 
		29.6,69.5 29.7,69.5 29.7,69.6 29.8,69.6 29.8,69.6 29.9,69.6 30,69.6 30,69.6 30.1,69.7 30.2,69.7 30.2,69.7 30.3,69.7 30.4,69.7 
		30.4,69.8 30.5,69.8 30.6,69.8 30.6,69.8 30.7,69.8 30.8,69.9 30.8,69.9 30.9,69.9 30.9,69.9 31,69.9 31.1,70 31.1,70 31.2,70 
		31.3,70 31.3,70 31.4,70.1 31.5,70.1 31.5,70.1 31.6,70.1 31.7,70.1 31.7,70.2 31.8,70.2 31.9,70.2 31.9,70.2 32,70.3 32,70.3 
		32.1,70.3 32.2,70.3 32.2,70.3 32.3,70.4 32.4,70.4 32.4,70.4 32.5,70.4 32.6,70.5 32.6,70.5 32.7,70.5 32.8,70.5 32.8,70.5 
		32.9,70.6 33,70.6 33,70.6 33.1,70.6 33.2,70.7 33.2,70.7 33.3,70.7 33.3,70.7 33.4,70.8 33.5,70.8 33.5,70.8 33.6,70.8 33.7,70.9 
		33.7,70.9 33.8,70.9 33.9,70.9 33.9,70.9 34,71 34.1,71 34.1,71 34.2,71.1 34.3,71.1 34.3,71.1 34.4,71.1 34.4,71.2 34.5,71.2 
		34.6,71.2 34.6,71.2 34.7,71.3 34.8,71.3 34.8,71.3 34.9,71.3 35,71.4 35,71.4 35.1,71.4 35.2,71.4 35.2,71.5 35.3,71.5 35.4,71.5 
		35.4,71.6 35.5,71.6 35.5,71.6 35.6,71.6 35.7,71.7 35.7,71.7 35.8,71.7 35.9,71.7 35.9,71.8 36,71.8 36.1,71.8 36.1,71.9 
		36.2,71.9 36.3,71.9 36.3,71.9 36.4,72 36.5,72 36.5,72 36.6,72.1 36.7,72.1 36.7,72.1 36.8,72.1 36.8,72.2 36.9,72.2 37,72.2 
		37,72.3 37.1,72.3 37.2,72.3 37.2,72.4 37.3,72.4 37.4,72.4 37.4,72.5 37.5,72.5 37.6,72.5 37.6,72.5 37.7,72.6 37.8,72.6 
		37.8,72.6 37.9,72.7 37.9,72.7 38,72.7 38.1,72.8 38.1,72.8 38.2,72.8 38.3,72.9 38.3,72.9 38.4,72.9 38.5,73 38.5,73 38.6,73 
		38.7,73.1 38.7,73.1 38.8,73.1 38.9,73.2 38.9,73.2 39,73.2 39,73.3 39.1,73.3 39.2,73.3 39.2,73.4 39.3,73.4 39.4,73.4 39.4,73.5 
		39.5,73.5 39.6,73.5 39.6,73.6 39.7,73.6 39.8,73.6 39.8,73.7 39.9,73.7 40,73.7 40,73.8 40.1,73.8 40.2,73.8 40.2,73.9 40.3,73.9 
		40.3,73.9 40.4,74 40.5,74 40.5,74.1 40.6,74.1 40.7,74.1 40.7,74.2 40.8,74.2 40.9,74.2 40.9,74.3 41,74.3 41.1,74.3 41.1,74.4 
		41.2,74.4 41.3,74.5 41.3,74.5 41.4,74.5 41.4,74.6 41.5,74.6 41.6,74.6 41.6,74.7 41.7,74.7 41.8,74.8 41.8,74.8 41.9,74.8 
		42,74.9 42,74.9 42.1,74.9 42.2,75 42.2,75 42.3,75.1 42.4,75.1 42.4,75.1 42.5,75.2 42.5,75.2 42.6,75.3 42.7,75.3 42.7,75.3 
		42.8,75.4 42.9,75.4 42.9,75.5 43,75.5 43.1,75.5 43.1,75.6 43.2,75.6 43.3,75.7 43.3,75.7 	"/>
	<polyline clip-path="url(#SVGID_12_)" fill="none" stroke="#00FF00" stroke-width="1.5" stroke-miterlimit="10" points="56.6,86.3 
		56.7,86.3 56.7,86.4 56.8,86.5 56.9,86.5 56.9,86.6 57,86.6 57.1,86.7 57.1,86.8 57.2,86.8 57.3,86.9 57.3,87 57.4,87 57.5,87.1 
		57.5,87.2 57.6,87.2 57.7,87.3 57.7,87.3 57.8,87.4 57.8,87.5 57.9,87.5 58,87.6 58,87.7 58.1,87.7 58.2,87.8 58.2,87.9 58.3,87.9 
		58.4,88 58.4,88.1 58.5,88.1 58.6,88.2 58.6,88.3 58.7,88.3 58.8,88.4 58.8,88.5 58.9,88.5 58.9,88.6 59,88.7 59.1,88.7 59.1,88.8 
		59.2,88.9 59.3,88.9 59.3,89 59.4,89.1 59.5,89.1 59.5,89.2 59.6,89.3 59.7,89.3 59.7,89.4 59.8,89.5 59.9,89.5 59.9,89.6 60,89.7 
		60.1,89.7 60.1,89.8 60.2,89.9 60.2,89.9 60.3,90 60.4,90.1 60.4,90.2 60.5,90.2 60.6,90.3 60.6,90.4 60.7,90.4 60.8,90.5 
		60.8,90.6 60.9,90.6 61,90.7 61,90.8 61.1,90.8 61.2,90.9 61.2,91 61.3,91.1 61.3,91.1 61.4,91.2 61.5,91.3 61.5,91.3 61.6,91.4 
		61.7,91.5 61.7,91.6 61.8,91.6 61.9,91.7 61.9,91.8 62,91.8 62.1,91.9 62.1,92 62.2,92.1 62.3,92.1 62.3,92.2 62.4,92.3 62.4,92.3 
		62.5,92.4 62.6,92.5 62.6,92.6 62.7,92.6 62.8,92.7 62.8,92.8 62.9,92.9 63,92.9 63,93 63.1,93.1 63.2,93.1 63.2,93.2 63.3,93.3 
		63.4,93.4 63.4,93.4 63.5,93.5 63.6,93.6 63.6,93.7 63.7,93.7 63.7,93.8 63.8,93.9 63.9,94 63.9,94 64,94.1 64.1,94.2 64.1,94.3 
		64.2,94.3 64.3,94.4 64.3,94.5 64.4,94.6 64.5,94.6 64.5,94.7 64.6,94.8 64.7,94.9 64.7,94.9 64.8,95 64.8,95.1 64.9,95.2 65,95.2 
		65,95.3 65.1,95.4 65.2,95.5 65.2,95.6 65.3,95.6 65.4,95.7 65.4,95.8 65.5,95.9 65.6,95.9 65.6,96 65.7,96.1 65.8,96.2 65.8,96.3 
		65.9,96.3 66,96.4 66,96.5 66.1,96.6 66.1,96.6 66.2,96.7 66.3,96.8 66.3,96.9 66.4,97 66.5,97 66.5,97.1 66.6,97.2 66.7,97.3 
		66.7,97.4 66.8,97.4 66.9,97.5 66.9,97.6 67,97.7 67.1,97.8 67.1,97.8 67.2,97.9 67.2,98 67.3,98.1 67.4,98.2 67.4,98.2 67.5,98.3 
		67.6,98.4 67.6,98.5 67.7,98.6 67.8,98.6 67.8,98.7 67.9,98.8 68,98.9 68,99 68.1,99 68.2,99.1 68.2,99.2 68.3,99.3 68.3,99.4 
		68.4,99.5 68.5,99.5 68.5,99.6 68.6,99.7 68.7,99.8 68.7,99.9 68.8,100 68.9,100 68.9,100.1 69,100.2 69.1,100.3 69.1,100.4 
		69.2,100.4 69.3,100.5 69.3,100.6 69.4,100.7 69.5,100.8 69.5,100.9 69.6,101 69.6,101 69.7,101.1 69.8,101.2 69.8,101.3 
		69.9,101.4 70,101.5 70,101.5 70.1,101.6 70.2,101.7 70.2,101.8 70.3,101.9 70.4,102 70.4,102.1 70.5,102.1 70.6,102.2 70.6,102.3 
		70.7,102.4 70.7,102.5 70.8,102.6 70.9,102.7 70.9,102.7 71,102.8 71.1,102.9 71.1,103 71.2,103.1 71.3,103.2 71.3,103.3 
		71.4,103.4 71.5,103.4 71.5,103.5 71.6,103.6 71.7,103.7 71.7,103.8 71.8,103.9 71.8,104 71.9,104.1 72,104.1 72,104.2 72.1,104.3 
		72.2,104.4 72.2,104.5 72.3,104.6 72.4,104.7 72.4,104.8 72.5,104.9 72.6,104.9 72.6,105 72.7,105.1 72.8,105.2 72.8,105.3 
		72.9,105.4 73,105.5 73,105.6 73.1,105.7 73.1,105.7 73.2,105.8 73.3,105.9 73.3,106 73.4,106.1 73.5,106.2 73.5,106.3 73.6,106.4 
		73.7,106.5 73.7,106.6 73.8,106.7 73.9,106.7 73.9,106.8 74,106.9 74.1,107 74.1,107.1 74.2,107.2 74.2,107.3 74.3,107.4 
		74.4,107.5 74.4,107.6 74.5,107.7 74.6,107.8 74.6,107.8 74.7,107.9 74.8,108 74.8,108.1 74.9,108.2 75,108.3 75,108.4 75.1,108.5 
		75.2,108.6 75.2,108.7 75.3,108.8 75.3,108.9 75.4,109 75.5,109.1 75.5,109.2 75.6,109.2 75.7,109.3 75.7,109.4 75.8,109.5 
		75.9,109.6 75.9,109.7 76,109.8 76.1,109.9 76.1,110 76.2,110.1 76.3,110.2 76.3,110.3 76.4,110.4 76.5,110.5 76.5,110.6 
		76.6,110.7 76.6,110.8 76.7,110.9 76.8,111 76.8,111.1 76.9,111.2 77,111.3 77,111.3 77.1,111.4 77.2,111.5 77.2,111.6 77.3,111.7 
		77.4,111.8 77.4,111.9 77.5,112 77.6,112.1 77.6,112.2 77.7,112.3 77.7,112.4 77.8,112.5 77.9,112.6 77.9,112.7 78,112.8 
		78.1,112.9 78.1,113 78.2,113.1 78.3,113.2 78.3,113.3 78.4,113.4 78.5,113.5 78.5,113.6 78.6,113.7 78.7,113.8 78.7,113.9 
		78.8,114 78.8,114.1 78.9,114.2 79,114.3 79,114.4 79.1,114.5 79.2,114.6 79.2,114.7 79.3,114.8 79.4,114.9 79.4,115 79.5,115.1 
		79.6,115.2 79.6,115.3 79.7,115.4 79.8,115.5 79.8,115.6 79.9,115.7 80,115.8 80,115.9 80.1,116 80.1,116.1 80.2,116.2 80.3,116.3 
		80.3,116.4 80.4,116.5 80.5,116.6 80.5,116.7 80.6,116.8 80.7,116.9 80.7,117 80.8,117.1 80.9,117.2 80.9,117.3 81,117.4 
		81.1,117.5 81.1,117.6 81.2,117.8 81.2,117.9 81.3,118 81.4,118.1 81.4,118.2 81.5,118.3 81.6,118.4 81.6,118.5 81.7,118.6 
		81.8,118.7 81.8,118.8 81.9,118.9 82,119 82,119.1 82.1,119.2 82.2,119.3 82.2,119.4 82.3,119.5 82.4,119.6 82.4,119.7 82.5,119.8 
		82.5,119.9 82.6,120.1 82.7,120.2 82.7,120.3 82.8,120.4 82.9,120.5 82.9,120.6 83,120.7 83.1,120.8 83.1,120.9 83.2,121 
		83.3,121.1 83.3,121.2 83.4,121.3 83.5,121.4 83.5,121.5 83.6,121.7 83.6,121.8 83.7,121.9 	"/>
</g>
<g>
	<path fill="none" d="M83.8,121.8"/>
</g>
<g>
	<path fill="none" d="M83.8,68.1"/>
</g>
<line fill="none" stroke="#0000FF" stroke-width="1.5" stroke-miterlimit="10" x1="19.2" y1="67.4" x2="83.6" y2="13.7"/>
<line fill="none" stroke="#0000FF" stroke-width="1.5" stroke-miterlimit="10" x1="19.2" y1="67.7" x2="83.6" y2="121.4"/>
<g>
	<linearGradient id="SVGID_13_" gradientUnits="userSpaceOnUse" x1="42.471" y1="67.3286" x2="67.1992" y2="67.3286">
		<stop  offset="0" style="stop-color:#000000"/>
		<stop  offset="1" style="stop-color:#FFFFFF"/>
	</linearGradient>
	<ellipse fill="url(#SVGID_13_)" stroke="#0000FF" stroke-miterlimit="10" cx="54.8" cy="67.3" rx="12.4" ry="28.3"/>
	<linearGradient id="SVGID_14_" gradientUnits="userSpaceOnUse" x1="44.5427" y1="67.6062" x2="69.2709" y2="67.6062">
		<stop  offset="0" style="stop-color:#FFFFFF"/>
		<stop  offset="1" style="stop-color:#000000"/>
	</linearGradient>
	<ellipse fill="url(#SVGID_14_)" stroke="#0000FF" stroke-miterlimit="10" cx="56.9" cy="67.6" rx="12.4" ry="28.3"/>
	<ellipse fill="#FFFFFF" stroke="#0000FF" stroke-miterlimit="10" cx="57.2" cy="67.1" rx="4.1" ry="18.5"/>
	<path opacity="0.5" fill="#FFFFFF" stroke="#0000FF" stroke-miterlimit="10" d="M55.6,48.2c2.3,0,4.1,8.3,4.1,18.5
		s-1.8,18.5-4.1,18.5"/>
</g>
<polyline fill="none" stroke="#00FF00" stroke-width="1.5" stroke-miterlimit="10" points="56.5,86.1 56.5,86.2 56.6,86.2 
	56.7,86.3 56.7,86.4 56.8,86.4 56.9,86.5 56.9,86.6 57,86.6 57,86.7 57.1,86.8 57.2,86.8 57.2,86.9 57.3,86.9 57.4,87 57.4,87.1 
	57.5,87.1 57.6,87.2 57.6,87.3 57.7,87.3 57.8,87.4 57.8,87.5 57.9,87.5 58,87.6 58,87.7 58.1,87.7 58.1,87.8 58.2,87.9 58.3,87.9 
	58.3,88 58.4,88 58.5,88.1 58.5,88.2 58.6,88.2 58.7,88.3 58.7,88.4 58.8,88.4 58.9,88.5 58.9,88.6 59,88.6 59.1,88.7 59.1,88.8 
	59.2,88.8 59.3,88.9 59.3,89 59.4,89 59.4,89.1 59.5,89.2 59.6,89.3 59.6,89.3 59.7,89.4 59.8,89.5 59.8,89.5 59.9,89.6 60,89.7 
	60,89.7 60.1,89.8 60.2,89.9 60.2,89.9 60.3,90 60.4,90.1 60.4,90.1 60.5,90.2 60.5,90.3 60.6,90.3 60.7,90.4 60.7,90.5 60.8,90.6 
	60.9,90.6 60.9,90.7 61,90.8 61.1,90.8 61.1,90.9 61.2,91 61.3,91.1 61.3,91.1 61.4,91.2 61.5,91.3 61.5,91.3 61.6,91.4 61.6,91.5 
	61.7,91.5 61.8,91.6 61.8,91.7 61.9,91.8 62,91.8 62,91.9 62.1,92 62.2,92 62.2,92.1 62.3,92.2 62.4,92.3 62.4,92.3 62.5,92.4 
	62.6,92.5 62.6,92.6 62.7,92.6 62.8,92.7 62.8,92.8 62.9,92.8 62.9,92.9 63,93 63.1,93.1 63.1,93.1 63.2,93.2 63.3,93.3 63.3,93.4 
	63.4,93.4 63.5,93.5 63.5,93.6 63.6,93.7 63.7,93.7 63.7,93.8 63.8,93.9 63.9,94 63.9,94 64,94.1 64,94.2 64.1,94.3 64.2,94.3 
	64.2,94.4 64.3,94.5 64.4,94.6 64.4,94.6 64.5,94.7 64.6,94.8 64.6,94.9 64.7,94.9 64.8,95 64.8,95.1 64.9,95.2 65,95.3 65,95.3 
	65.1,95.4 65.1,95.5 65.2,95.6 65.3,95.6 65.3,95.7 65.4,95.8 65.5,95.9 65.5,95.9 65.6,96 65.7,96.1 65.7,96.2 65.8,96.3 
	65.9,96.3 65.9,96.4 66,96.5 66.1,96.6 66.1,96.6 66.2,96.7 66.3,96.8 66.3,96.9 66.4,97 66.4,97 66.5,97.1 66.6,97.2 66.6,97.3 
	66.7,97.4 66.8,97.4 66.8,97.5 66.9,97.6 67,97.7 67,97.8 67.1,97.8 67.2,97.9 67.2,98 67.3,98.1 67.4,98.2 67.4,98.2 67.5,98.3 
	67.5,98.4 67.6,98.5 67.7,98.6 67.7,98.7 67.8,98.7 67.9,98.8 67.9,98.9 68,99 68.1,99.1 68.1,99.1 68.2,99.2 68.3,99.3 68.3,99.4 
	68.4,99.5 68.5,99.6 68.5,99.6 68.6,99.7 68.6,99.8 68.7,99.9 68.8,100 68.8,100.1 68.9,100.1 69,100.2 69,100.3 69.1,100.4 
	69.2,100.5 69.2,100.6 69.3,100.6 69.4,100.7 69.4,100.8 69.5,100.9 69.6,101 69.6,101.1 69.7,101.1 69.8,101.2 69.8,101.3 
	69.9,101.4 69.9,101.5 70,101.6 70.1,101.7 70.1,101.7 70.2,101.8 70.3,101.9 70.3,102 70.4,102.1 70.5,102.2 70.5,102.3 
	70.6,102.3 70.7,102.4 70.7,102.5 70.8,102.6 70.9,102.7 70.9,102.8 71,102.9 71,102.9 71.1,103 71.2,103.1 71.2,103.2 71.3,103.3 
	71.4,103.4 71.4,103.5 71.5,103.6 71.6,103.6 71.6,103.7 71.7,103.8 71.8,103.9 71.8,104 71.9,104.1 72,104.2 72,104.3 72.1,104.3 
	72.2,104.4 72.2,104.5 72.3,104.6 72.3,104.7 72.4,104.8 72.5,104.9 72.5,105 72.6,105.1 72.7,105.1 72.7,105.2 72.8,105.3 
	72.9,105.4 72.9,105.5 73,105.6 73.1,105.7 73.1,105.8 73.2,105.9 73.3,106 73.3,106 73.4,106.1 73.4,106.2 73.5,106.3 73.6,106.4 
	73.6,106.5 73.7,106.6 73.8,106.7 73.8,106.8 73.9,106.9 74,107 74,107.1 74.1,107.1 74.2,107.2 74.2,107.3 74.3,107.4 74.4,107.5 
	74.4,107.6 74.5,107.7 74.5,107.8 74.6,107.9 74.7,108 74.7,108.1 74.8,108.2 74.9,108.3 74.9,108.4 75,108.4 75.1,108.5 
	75.1,108.6 75.2,108.7 75.3,108.8 75.3,108.9 75.4,109 75.5,109.1 75.5,109.2 75.6,109.3 75.7,109.4 75.7,109.5 75.8,109.6 
	75.8,109.7 75.9,109.8 76,109.9 76,110 76.1,110 76.2,110.1 76.2,110.2 76.3,110.3 76.4,110.4 76.4,110.5 76.5,110.6 76.6,110.7 
	76.6,110.8 76.7,110.9 76.8,111 76.8,111.1 76.9,111.2 76.9,111.3 77,111.4 77.1,111.5 77.1,111.6 77.2,111.7 77.3,111.8 
	77.3,111.9 77.4,112 77.5,112.1 77.5,112.2 77.6,112.3 77.7,112.4 77.7,112.5 77.8,112.6 77.9,112.7 77.9,112.8 78,112.9 78,113 
	78.1,113.1 78.2,113.2 78.2,113.3 78.3,113.4 78.4,113.4 78.4,113.5 78.5,113.6 78.6,113.7 78.6,113.8 78.7,113.9 78.8,114 
	78.8,114.1 78.9,114.2 79,114.3 79,114.4 79.1,114.5 79.2,114.6 79.2,114.7 79.3,114.8 79.3,114.9 79.4,115 79.5,115.1 79.5,115.3 
	79.6,115.4 79.7,115.5 79.7,115.6 79.8,115.7 79.9,115.8 79.9,115.9 80,116 80.1,116.1 80.1,116.2 80.2,116.3 80.3,116.4 
	80.3,116.5 80.4,116.6 80.4,116.7 80.5,116.8 80.6,116.9 80.6,117 80.7,117.1 80.8,117.2 80.8,117.3 80.9,117.4 81,117.5 81,117.6 
	81.1,117.7 81.2,117.8 81.2,117.9 81.3,118 81.4,118.1 81.4,118.2 81.5,118.3 81.5,118.4 81.6,118.5 81.7,118.6 81.7,118.7 
	81.8,118.9 81.9,119 81.9,119.1 82,119.2 82.1,119.3 82.1,119.4 82.2,119.5 82.3,119.6 82.3,119.7 82.4,119.8 82.5,119.9 82.5,120 
	82.6,120.1 82.7,120.2 82.7,120.3 82.8,120.4 82.8,120.5 82.9,120.6 83,120.8 83,120.9 83.1,121 83.2,121.1 83.2,121.2 83.3,121.3 
	83.4,121.4 83.4,121.5 83.5,121.6 83.6,121.7 "/>
<polyline fill="none" stroke="#00FF00" stroke-width="1.5" stroke-miterlimit="10" points="56.7,49.1 56.8,49 56.8,49 56.9,48.9 
	57,48.8 57,48.8 57.1,48.7 57.2,48.7 57.2,48.6 57.3,48.5 57.4,48.5 57.4,48.4 57.5,48.3 57.6,48.3 57.6,48.2 57.7,48.1 57.7,48.1 
	57.8,48 57.9,48 57.9,47.9 58,47.8 58.1,47.8 58.1,47.7 58.2,47.6 58.3,47.6 58.3,47.5 58.4,47.4 58.5,47.4 58.5,47.3 58.6,47.2 
	58.7,47.2 58.7,47.1 58.8,47 58.8,47 58.9,46.9 59,46.8 59,46.8 59.1,46.7 59.2,46.6 59.2,46.6 59.3,46.5 59.4,46.4 59.4,46.4 
	59.5,46.3 59.6,46.2 59.6,46.2 59.7,46.1 59.8,46 59.8,46 59.9,45.9 59.9,45.8 60,45.8 60.1,45.7 60.1,45.6 60.2,45.6 60.3,45.5 
	60.3,45.4 60.4,45.4 60.5,45.3 60.5,45.2 60.6,45.1 60.7,45.1 60.7,45 60.8,44.9 60.9,44.9 60.9,44.8 61,44.7 61.1,44.7 61.1,44.6 
	61.2,44.5 61.2,44.5 61.3,44.4 61.4,44.3 61.4,44.2 61.5,44.2 61.6,44.1 61.6,44 61.7,44 61.8,43.9 61.8,43.8 61.9,43.7 62,43.7 
	62,43.6 62.1,43.5 62.2,43.5 62.2,43.4 62.3,43.3 62.3,43.2 62.4,43.2 62.5,43.1 62.5,43 62.6,43 62.7,42.9 62.7,42.8 62.8,42.7 
	62.9,42.7 62.9,42.6 63,42.5 63.1,42.4 63.1,42.4 63.2,42.3 63.3,42.2 63.3,42.1 63.4,42.1 63.4,42 63.5,41.9 63.6,41.9 63.6,41.8 
	63.7,41.7 63.8,41.6 63.8,41.6 63.9,41.5 64,41.4 64,41.3 64.1,41.3 64.2,41.2 64.2,41.1 64.3,41 64.4,41 64.4,40.9 64.5,40.8 
	64.6,40.7 64.6,40.7 64.7,40.6 64.7,40.5 64.8,40.4 64.9,40.4 64.9,40.3 65,40.2 65.1,40.1 65.1,40 65.2,40 65.3,39.9 65.3,39.8 
	65.4,39.7 65.5,39.7 65.5,39.6 65.6,39.5 65.7,39.4 65.7,39.4 65.8,39.3 65.8,39.2 65.9,39.1 66,39 66,39 66.1,38.9 66.2,38.8 
	66.2,38.7 66.3,38.6 66.4,38.6 66.4,38.5 66.5,38.4 66.6,38.3 66.6,38.3 66.7,38.2 66.8,38.1 66.8,38 66.9,37.9 66.9,37.9 67,37.8 
	67.1,37.7 67.1,37.6 67.2,37.5 67.3,37.5 67.3,37.4 67.4,37.3 67.5,37.2 67.5,37.1 67.6,37.1 67.7,37 67.7,36.9 67.8,36.8 
	67.9,36.7 67.9,36.7 68,36.6 68.1,36.5 68.1,36.4 68.2,36.3 68.2,36.2 68.3,36.2 68.4,36.1 68.4,36 68.5,35.9 68.6,35.8 68.6,35.7 
	68.7,35.7 68.8,35.6 68.8,35.5 68.9,35.4 69,35.3 69,35.3 69.1,35.2 69.2,35.1 69.2,35 69.3,34.9 69.3,34.8 69.4,34.8 69.5,34.7 
	69.5,34.6 69.6,34.5 69.7,34.4 69.7,34.3 69.8,34.2 69.9,34.2 69.9,34.1 70,34 70.1,33.9 70.1,33.8 70.2,33.7 70.3,33.7 70.3,33.6 
	70.4,33.5 70.4,33.4 70.5,33.3 70.6,33.2 70.6,33.1 70.7,33.1 70.8,33 70.8,32.9 70.9,32.8 71,32.7 71,32.6 71.1,32.5 71.2,32.5 
	71.2,32.4 71.3,32.3 71.4,32.2 71.4,32.1 71.5,32 71.6,31.9 71.6,31.8 71.7,31.8 71.7,31.7 71.8,31.6 71.9,31.5 71.9,31.4 72,31.3 
	72.1,31.2 72.1,31.1 72.2,31.1 72.3,31 72.3,30.9 72.4,30.8 72.5,30.7 72.5,30.6 72.6,30.5 72.7,30.4 72.7,30.3 72.8,30.3 
	72.8,30.2 72.9,30.1 73,30 73,29.9 73.1,29.8 73.2,29.7 73.2,29.6 73.3,29.5 73.4,29.4 73.4,29.4 73.5,29.3 73.6,29.2 73.6,29.1 
	73.7,29 73.8,28.9 73.8,28.8 73.9,28.7 73.9,28.6 74,28.5 74.1,28.4 74.1,28.3 74.2,28.3 74.3,28.2 74.3,28.1 74.4,28 74.5,27.9 
	74.5,27.8 74.6,27.7 74.7,27.6 74.7,27.5 74.8,27.4 74.9,27.3 74.9,27.2 75,27.1 75.1,27.1 75.1,27 75.2,26.9 75.2,26.8 75.3,26.7 
	75.4,26.6 75.4,26.5 75.5,26.4 75.6,26.3 75.6,26.2 75.7,26.1 75.8,26 75.8,25.9 75.9,25.8 76,25.7 76,25.6 76.1,25.6 76.2,25.5 
	76.2,25.4 76.3,25.3 76.3,25.2 76.4,25.1 76.5,25 76.5,24.9 76.6,24.8 76.7,24.7 76.7,24.6 76.8,24.5 76.9,24.4 76.9,24.3 77,24.2 
	77.1,24.1 77.1,24 77.2,23.9 77.3,23.8 77.3,23.7 77.4,23.6 77.5,23.5 77.5,23.4 77.6,23.3 77.6,23.2 77.7,23.1 77.8,23 77.8,23 
	77.9,22.9 78,22.8 78,22.7 78.1,22.6 78.2,22.5 78.2,22.4 78.3,22.3 78.4,22.2 78.4,22.1 78.5,22 78.6,21.9 78.6,21.8 78.7,21.7 
	78.7,21.6 78.8,21.5 78.9,21.4 78.9,21.3 79,21.2 79.1,21.1 79.1,21 79.2,20.9 79.3,20.8 79.3,20.7 79.4,20.6 79.5,20.5 79.5,20.4 
	79.6,20.3 79.7,20.2 79.7,20.1 79.8,20 79.8,19.9 79.9,19.8 80,19.7 80,19.6 80.1,19.5 80.2,19.4 80.2,19.3 80.3,19.2 80.4,19.1 
	80.4,19 80.5,18.9 80.6,18.7 80.6,18.6 80.7,18.5 80.8,18.4 80.8,18.3 80.9,18.2 81,18.1 81,18 81.1,17.9 81.1,17.8 81.2,17.7 
	81.3,17.6 81.3,17.5 81.4,17.4 81.5,17.3 81.5,17.2 81.6,17.1 81.7,17 81.7,16.9 81.8,16.8 81.9,16.7 81.9,16.6 82,16.5 82.1,16.4 
	82.1,16.3 82.2,16.2 82.2,16.1 82.3,15.9 82.4,15.8 82.4,15.7 82.5,15.6 82.6,15.5 82.6,15.4 82.7,15.3 82.8,15.2 82.8,15.1 
	82.9,15 83,14.9 83,14.8 83.1,14.7 83.2,14.6 83.2,14.5 83.3,14.4 83.3,14.2 83.4,14.1 83.5,14 83.5,13.9 83.6,13.8 83.7,13.7 
	83.7,13.6 83.8,13.5 "/>
<line fill="none" stroke="#000000" stroke-miterlimit="10" x1="53.7" y1="67.5" x2="148.5" y2="67.5"/>
</svg>
