<?xml version="1.0" encoding="utf-8"?>
<!-- Generator: Adobe Illustrator 19.1.0, SVG Export Plug-In . SVG Version: 6.00 Build 0)  -->
<svg version="1.1" id="Layer_1" xmlns="http://www.w3.org/2000/svg" xmlns:xlink="http://www.w3.org/1999/xlink" x="0px" y="0px"
	 viewBox="0 0 449.1 581.5" style="enable-background:new 0 0 449.1 581.5;" xml:space="preserve">
<style type="text/css">
	.st0{fill:#FFFFFF;stroke:#000000;stroke-miterlimit:10;}
	.st1{font-family:'cmmi10';}
	.st2{font-size:69.7382px;}
	.st3{fill:none;stroke:#000000;stroke-width:3;stroke-miterlimit:10;}
	.st4{font-family:'cmr10';}
	.st5{letter-spacing:15;}
	.st6{font-family:'cmr7';}
	.st7{font-size:48.8166px;}
	.st8{font-family:'MyriadPro-Regular';}
	.st9{font-size:80px;}
</style>
<polygon class="st0" points="381.9,1.5 220,220.6 1,515.8 381.9,515.8 "/>
<text transform="matrix(1 0 0 1 61.3739 498.6801)" class="st1 st2">θ</text>
<path class="st3" d="M449.1,227.8"/>
<path class="st3" d="M398.9,306.9"/>
<path class="st3" d="M276.5,540.3"/>
<text transform="matrix(1 0 0 1 398.9333 306.9305)" class="st1 st2">x</text>
<text transform="matrix(1 0 0 1 181.3708 569.3411)" class="st4 st2">1</text>
<line class="st3" x1="46.4" y1="120.9" x2="237.6" y2="120.9"/>
<text transform="matrix(1 0 0 1 49.3923 190.8131)"><tspan x="0" y="0" class="st4 st2 st5">1</tspan><tspan x="50.3" y="0" class="st4 st2">+</tspan></text>
<text transform="matrix(1 0 0 1 169.49 190.8131)" class="st1 st2">x</text>
<text transform="matrix(1 0 0 1 209.3493 170.6686)" class="st6 st7">2</text>
<text transform="matrix(1 0 0 1 4.8881 185.8131)" class="st8 st9">√</text>
</svg>
